<?xml version="1.0" standalone="no"?>
<!DOCTYPE svg PUBLIC "-//W3C//DTD SVG 1.1//EN" "http://www.w3.org/Graphics/SVG/1.1/DTD/svg11.dtd" >
<svg xmlns="http://www.w3.org/2000/svg" xmlns:xlink="http://www.w3.org/1999/xlink" version="1.1">
<metadata>
Created by FontForge 20161003 at Fri Sep 13 04:37:50 2019
 By www-data
Copyright (c) 1985, 1987, 1988 Adobe Systems Incorporated.  All Rights Reserved.Helvetica is a trademark of Linotype Company.
</metadata>
<defs>
<font id="Helvetica-Light" horiz-adv-x="556" >
  <font-face 
    font-family="Helvetica"
    font-weight="300"
    font-stretch="normal"
    units-per-em="1000"
    panose-1="0 0 0 0 0 0 0 0 0 0"
    ascent="800"
    descent="-200"
    x-height="518"
    cap-height="720"
    bbox="-164 -212 1000 979"
    underline-thickness="58"
    underline-position="-90"
    unicode-range="U+0020-FB02"
  />
<missing-glyph horiz-adv-x="278" 
 />
    <glyph glyph-name=".notdef" horiz-adv-x="278" 
 />
    <glyph glyph-name="space" unicode=" " horiz-adv-x="278" 
 />
    <glyph glyph-name="exclam" unicode="!" horiz-adv-x="333" 
d="M144 181l-14 315v224h73v-224l-14 -315h-45zM203 0h-73v88h73v-88z" />
    <glyph glyph-name="quotedbl" unicode="&#x22;" horiz-adv-x="278" 
d="M57 494v226h52v-226h-52zM168 494v226h52v-226h-52z" />
    <glyph glyph-name="numbersign" unicode="#" 
d="M504 287v-59h-111l-32 -228h-59l31 228h-137l-34 -228h-59l34 228h-110v59h119l21 140h-112v59h120l32 212h60l-32 -212h136l31 212h59l-31 -212h100v-59h-108l-20 -140h102zM363 427h-136l-22 -140h138z" />
    <glyph glyph-name="dollar" unicode="$" 
d="M255 394v257c-75 0 -135 -51 -135 -125c0 -88 61 -111 135 -132zM302 322v-287c83 0 152 61 152 145c0 99 -67 124 -152 142zM302 -19v-76h-46v76c-112 6 -190 62 -214 173c-3 17 -4 33 -5 49h65c0 -90 62 -163 153 -168v297c-110 27 -199 65 -199 191
c0 111 92 185 200 182v61h46v-61c110 1 191 -63 195 -176h-65c-1 73 -58 122 -130 122v-266c131 -31 216 -65 216 -216c0 -117 -111 -185 -216 -188z" />
    <glyph glyph-name="percent" unicode="%" horiz-adv-x="889" 
d="M658 331c91 0 163 -75 163 -165c0 -91 -71 -166 -163 -166c-91 0 -166 75 -166 166c0 90 76 165 166 165zM657 274c-60 0 -108 -50 -108 -110c0 -57 51 -107 108 -107c58 0 107 51 107 109s-49 108 -107 108zM398 532c0 -91 -75 -165 -166 -165s-165 75 -165 165
s74 166 165 166s166 -75 166 -166zM232 424c58 0 109 50 109 108s-50 109 -109 109s-108 -50 -108 -109s50 -108 108 -108zM668 705l-397 -719h-52l397 719h52z" />
    <glyph glyph-name="ampersand" unicode="&#x26;" horiz-adv-x="667" 
d="M454 131l-205 244c-79 -37 -140 -107 -140 -185c0 -95 70 -155 162 -155c77 0 135 39 183 96zM378 540c24 54 -10 126 -85 126c-50 0 -96 -33 -96 -86c0 -43 49 -104 75 -135c40 24 86 50 106 95zM307 400l181 -214c25 42 30 91 30 140h59c-3 -65 -14 -132 -50 -188
l117 -138h-81l-70 85c-62 -75 -131 -104 -227 -104c-125 0 -225 85 -225 214c0 108 80 180 172 223c-39 45 -77 98 -77 161c0 91 74 141 162 141c89 0 151 -63 151 -139c0 -96 -67 -136 -142 -181z" />
    <glyph glyph-name="quoteright" unicode="&#x2019;" horiz-adv-x="222" 
d="M153 720v-118c0 -58 -31 -94 -73 -107v37c16 10 34 26 34 66v34h-34v88h73z" />
    <glyph glyph-name="parenleft" unicode="(" horiz-adv-x="333" 
d="M226 739h51c-95 -138 -153 -300 -153 -468c0 -166 61 -325 153 -462h-51c-110 152 -171 277 -171 467c0 183 63 319 171 463z" />
    <glyph glyph-name="parenright" unicode=")" horiz-adv-x="333" 
d="M107 -191h-51c95 138 153 300 153 468c0 166 -61 325 -153 462h51c110 -152 171 -277 171 -467c0 -183 -63 -319 -171 -463z" />
    <glyph glyph-name="asterisk" unicode="*" horiz-adv-x="389" 
d="M62 646l111 -43v117h42v-117l114 42l15 -44l-114 -37l75 -106l-39 -24l-74 108l-78 -106l-35 27l77 101l-112 40z" />
    <glyph glyph-name="plus" unicode="+" horiz-adv-x="660" 
d="M300 280v220h60v-220h220v-60h-220v-220h-60v220h-220v60h220z" />
    <glyph glyph-name="comma" unicode="," horiz-adv-x="278" 
d="M175 88v-118c0 -58 -31 -94 -73 -107v37c16 10 34 26 34 66v34h-34v88h73z" />
    <glyph glyph-name="hyphen" unicode="-" horiz-adv-x="333" 
d="M40 291h253v-62h-253v62z" />
    <glyph glyph-name="period" unicode="." horiz-adv-x="278" 
d="M175 0h-73v88h73v-88z" />
    <glyph glyph-name="slash" unicode="/" horiz-adv-x="278" 
d="M288 739l-235 -829h-56l235 829h56z" />
    <glyph glyph-name="zero" unicode="0" 
d="M452 347c0 152 -27 304 -176 304c-140 0 -173 -155 -173 -311c0 -181 40 -300 175 -300c152 0 174 165 174 307zM278 705c209 0 238 -201 238 -365c0 -187 -44 -354 -238 -354c-195 0 -239 166 -239 361c0 178 36 358 239 358z" />
    <glyph glyph-name="one" unicode="1" 
d="M302 0v524h-182v42c107 7 174 18 195 139h51v-705h-64z" />
    <glyph glyph-name="two" unicode="2" 
d="M137 474h-68c0 139 90 231 229 231c142 0 217 -87 217 -195c0 -187 -202 -234 -307 -314c-46 -35 -89 -75 -92 -142h393v-54h-461c1 67 10 120 55 172c147 170 342 168 342 334c0 92 -68 145 -155 145c-92 0 -157 -82 -153 -177z" />
    <glyph glyph-name="three" unicode="3" 
d="M221 340v52c119 -1 202 27 202 135c0 87 -69 124 -150 124c-90 0 -151 -63 -151 -151h-64c0 63 21 114 68 158c44 40 102 47 160 47c111 0 201 -56 201 -174c0 -73 -32 -128 -100 -157c102 -32 125 -109 125 -174c0 -116 -82 -210 -227 -214c-163 0 -236 54 -251 218h64
c0 -107 71 -164 175 -164c102 0 179 76 175 159c-4 114 -103 150 -227 141z" />
    <glyph glyph-name="four" unicode="4" 
d="M358 0v174h-322v55l328 469h58v-470h98v-54h-98v-174h-64zM358 602l-259 -374h259v374z" />
    <glyph glyph-name="five" unicode="5" 
d="M35 183h64c13 -95 82 -143 174 -143c105 0 169 80 169 180c0 105 -68 179 -175 179c-63 0 -114 -22 -153 -73l-53 7l57 365h350v-54h-296l-44 -237c55 36 91 46 155 46c129 0 223 -88 223 -233c0 -148 -107 -234 -223 -234c-133 0 -237 51 -248 197z" />
    <glyph glyph-name="six" unicode="6" 
d="M503 532h-66c-14 72 -59 119 -134 119c-173 0 -188 -186 -198 -319c40 54 82 110 185 110c142 0 224 -86 224 -227c0 -142 -83 -229 -226 -229c-141 0 -247 88 -247 337c0 167 49 382 256 382c111 0 193 -60 206 -173zM288 388c-99 0 -159 -80 -159 -175
c0 -79 44 -173 160 -173c119 0 161 92 161 177c0 109 -52 171 -162 171z" />
    <glyph glyph-name="seven" unicode="7" 
d="M59 634v64h449v-60c-202 -228 -278 -500 -286 -638h-70c14 204 144 468 279 634h-372z" />
    <glyph glyph-name="eight" unicode="8" 
d="M279 345c-98 0 -171 -47 -171 -151c0 -87 68 -154 175 -154c93 0 165 64 165 158c0 99 -75 147 -169 147zM276 651c-79 0 -143 -44 -143 -127c0 -87 72 -125 150 -125c77 0 136 39 136 139c0 71 -46 113 -143 113zM167 379c-68 43 -98 70 -98 154c0 97 90 176 201 172
c108 0 213 -51 213 -172c0 -73 -29 -125 -96 -158c77 -28 125 -93 125 -175c0 -138 -98 -214 -248 -214c-102 0 -220 70 -220 208c0 84 43 154 123 185z" />
    <glyph glyph-name="nine" unicode="9" 
d="M53 155h65c15 -75 59 -115 137 -115c167 0 190 186 196 313l-2 2c-43 -71 -106 -110 -190 -110c-132 0 -218 90 -218 227c0 133 73 233 227 233c190 0 247 -159 247 -356c0 -239 -108 -363 -257 -363c-110 0 -194 54 -205 169zM268 651c-108 -2 -163 -71 -163 -181
c0 -107 60 -171 163 -171c100 0 158 80 158 175c0 104 -59 175 -158 177z" />
    <glyph glyph-name="colon" unicode=":" horiz-adv-x="278" 
d="M175 0h-73v88h73v-88zM175 404h-73v88h73v-88z" />
    <glyph glyph-name="semicolon" unicode=";" horiz-adv-x="278" 
d="M175 88v-118c0 -58 -31 -94 -73 -107v37c16 10 34 26 34 66v34h-34v88h73zM175 404h-73v88h73v-88z" />
    <glyph glyph-name="less" unicode="&#x3c;" horiz-adv-x="660" 
d="M159 255l421 -197v-64l-500 235v53l500 223v-64z" />
    <glyph glyph-name="equal" unicode="=" horiz-adv-x="660" 
d="M580 378v-60h-500v60h500zM580 184v-60h-500v60h500z" />
    <glyph glyph-name="greater" unicode="&#x3e;" horiz-adv-x="660" 
d="M580 282v-53l-500 -235v64l421 197l-421 186v64z" />
    <glyph glyph-name="question" unicode="?" horiz-adv-x="500" 
d="M274 182h-58c-1 73 3 131 55 186c58 61 137 114 137 188c0 72 -57 129 -156 129c-98 0 -156 -74 -153 -169h-61c-10 133 86 223 216 223c136 0 218 -75 218 -188c0 -116 -119 -158 -177 -250c-22 -35 -21 -79 -21 -119zM283 0h-73v88h73v-88z" />
    <glyph glyph-name="at" unicode="@" horiz-adv-x="800" 
d="M684 167h59c-63 -116 -193 -186 -324 -186c-214 0 -379 171 -379 382c0 208 172 376 375 376c192 0 345 -133 345 -316c0 -158 -126 -292 -233 -292c-35 0 -74 16 -86 52c-30 -31 -77 -50 -119 -50c-86 0 -139 68 -139 150c0 134 100 303 248 303c47 0 92 -23 112 -66
l15 46h67l-101 -302c-15 -44 -23 -81 17 -81c83 0 159 137 159 243c0 163 -132 263 -283 263c-185 0 -317 -152 -317 -333s139 -325 319 -325c103 0 205 50 265 136zM337 196c91 1 165 168 165 258c0 39 -28 73 -69 73c-106 0 -174 -148 -174 -239c0 -48 27 -92 78 -92z" />
    <glyph glyph-name="A" unicode="A" horiz-adv-x="667" 
d="M85 0h-70l283 720h77l276 -720h-70l-83 226h-328zM334 662l-141 -378h282z" />
    <glyph glyph-name="B" unicode="B" horiz-adv-x="667" 
d="M149 344v-286h173c150 0 220 20 220 145c0 119 -84 141 -212 141h-181zM149 662v-260h172c142 0 188 50 188 137c0 90 -54 123 -203 123h-157zM375 0h-294v720h260c169 0 236 -73 236 -181c0 -100 -57 -145 -115 -155v-2c99 -15 148 -84 148 -179
c0 -150 -98 -203 -235 -203z" />
    <glyph glyph-name="C" unicode="C" horiz-adv-x="722" 
d="M662 511h-70c-28 123 -104 170 -227 170c-174 0 -249 -149 -249 -319c0 -161 59 -323 255 -323c124 0 201 84 228 198h71c-32 -139 -119 -256 -312 -256c-222 0 -310 175 -310 379c0 275 144 379 335 379c148 0 256 -79 279 -228z" />
    <glyph glyph-name="D" unicode="D" horiz-adv-x="722" 
d="M327 0h-246v720h246c80 0 155 -5 222 -54c95 -69 120 -209 120 -305c0 -95 -21 -201 -87 -273c-66 -74 -160 -88 -255 -88zM149 662v-604h163c61 0 114 4 169 33c96 49 120 172 120 270c0 105 -23 220 -124 274c-43 23 -105 27 -165 27h-163z" />
    <glyph glyph-name="E" unicode="E" horiz-adv-x="611" 
d="M570 0h-489v720h479v-58h-411v-260h371v-58h-371v-286h421v-58z" />
    <glyph glyph-name="F" unicode="F" 
d="M142 0h-68v720h464v-58h-396v-260h360v-58h-360v-344z" />
    <glyph glyph-name="G" unicode="G" horiz-adv-x="778" 
d="M630 314h-243v58h308v-372h-58v123c-50 -86 -127 -142 -269 -142c-182 0 -315 127 -315 383c0 211 106 375 333 375c151 0 270 -74 301 -228h-70c-24 108 -119 170 -226 170c-190 0 -270 -140 -270 -344c0 -159 96 -298 261 -298c78 0 170 33 217 126c23 45 30 95 31 149
z" />
    <glyph glyph-name="H" unicode="H" horiz-adv-x="722" 
d="M148 0h-68v720h68v-309h426v309h68v-720h-68v353h-426v-353z" />
    <glyph glyph-name="I" unicode="I" horiz-adv-x="278" 
d="M173 0h-68v720h68v-720z" />
    <glyph glyph-name="J" unicode="J" horiz-adv-x="500" 
d="M22 228h68c-1 -90 4 -185 130 -185c93 0 127 55 127 156v521h68v-523c0 -139 -64 -216 -203 -216c-162 0 -190 119 -190 247z" />
    <glyph glyph-name="K" unicode="K" horiz-adv-x="667" 
d="M153 0h-68v720h68v-373l369 373h77l-284 -287l334 -433h-83l-300 391l-113 -113v-278z" />
    <glyph glyph-name="L" unicode="L" 
d="M535 0h-454v720h68v-662h386v-58z" />
    <glyph glyph-name="M" unicode="M" horiz-adv-x="833" 
d="M146 0h-68v720h104l236 -635h2l232 635h103v-720h-68v642h-2l-236 -642h-64l-237 642h-2v-642z" />
    <glyph glyph-name="N" unicode="N" horiz-adv-x="722" 
d="M563 0l-414 628h-2v-628h-68v720h77l416 -629h2v629h68v-720h-79z" />
    <glyph glyph-name="O" unicode="O" horiz-adv-x="778" 
d="M53 359c-1 210 117 380 332 380c225 0 339 -169 339 -380c0 -207 -114 -378 -336 -378s-335 171 -335 378zM389 39c187 0 267 152 267 320c0 200 -103 322 -269 322c-185 0 -266 -155 -266 -322c0 -170 80 -320 268 -320z" />
    <glyph glyph-name="P" unicode="P" horiz-adv-x="611" 
d="M146 0h-68v720h263c187 0 235 -93 235 -201c0 -161 -143 -201 -276 -201h-154v-318zM146 376h156c127 0 206 26 206 148c0 90 -58 138 -186 138h-176v-286z" />
    <glyph glyph-name="Q" unicode="Q" horiz-adv-x="778" 
d="M611 68l96 -74l-38 -46l-106 82c-49 -31 -109 -49 -180 -49c-222 0 -335 171 -335 378c0 200 108 380 332 380c202 0 339 -135 339 -380c0 -116 -36 -221 -108 -291zM464 181l97 -74c61 58 90 152 90 252c0 215 -115 322 -269 322c-185 0 -266 -156 -266 -322
c0 -171 80 -320 268 -320c50 0 92 12 126 32l-82 63z" />
    <glyph glyph-name="R" unicode="R" horiz-adv-x="667" 
d="M148 385h212c101 0 179 42 179 143c0 108 -84 134 -175 134h-216v-277zM362 327h-214v-327h-68v720h282c158 0 245 -56 245 -189c0 -91 -34 -139 -117 -176c85 -29 90 -119 92 -195c3 -109 12 -139 30 -153v-7h-75c-28 49 -21 184 -32 239c-16 78 -75 88 -143 88z" />
    <glyph glyph-name="S" unicode="S" horiz-adv-x="611" 
d="M43 215h66c11 -129 97 -176 207 -176c129 0 183 70 183 149c0 223 -439 75 -439 358c0 100 83 193 244 193c162 0 243 -98 242 -215h-65c0 110 -85 157 -177 157c-138 0 -188 -85 -176 -159c31 -186 439 -52 439 -331c0 -132 -97 -210 -263 -210c-150 0 -261 78 -261 234
z" />
    <glyph glyph-name="T" unicode="T" 
d="M16 662v58h524v-58h-228v-662h-68v662h-228z" />
    <glyph glyph-name="U" unicode="U" horiz-adv-x="722" 
d="M82 271v449h68v-429c0 -178 64 -252 211 -252c155 0 211 82 211 252v429h68v-449c0 -187 -93 -290 -279 -290c-188 0 -279 106 -279 290z" />
    <glyph glyph-name="V" unicode="V" horiz-adv-x="611" 
d="M268 0l-250 720h71l217 -640l216 640h71l-250 -720h-75z" />
    <glyph glyph-name="W" unicode="W" horiz-adv-x="889" 
d="M482 720l164 -624h2l157 624h70l-189 -720h-75l-167 636h-2l-167 -636h-75l-186 720h68l155 -624h2l167 624h76z" />
    <glyph glyph-name="X" unicode="X" horiz-adv-x="611" 
d="M514 0l-210 318l-209 -318h-77l248 370l-238 350h79l197 -303l198 303h79l-236 -350l247 -370h-78z" />
    <glyph glyph-name="Y" unicode="Y" horiz-adv-x="611" 
d="M90 720l212 -347l217 347h79l-261 -406v-314h-68v309l-257 411h78z" />
    <glyph glyph-name="Z" unicode="Z" horiz-adv-x="611" 
d="M579 0h-548v57l461 605h-422v58h506v-57l-461 -605h464v-58z" />
    <glyph glyph-name="bracketleft" unicode="[" horiz-adv-x="333" 
d="M280 -191h-189v930h191v-50h-127v-830h125v-50z" />
    <glyph glyph-name="backslash" unicode="\" horiz-adv-x="278" 
d="M264 0l-310 739h60l310 -739h-60z" />
    <glyph glyph-name="bracketright" unicode="]" horiz-adv-x="333" 
d="M242 739v-930h-191v50h127v830h-125v50h189z" />
    <glyph glyph-name="asciicircum" unicode="^" horiz-adv-x="660" 
d="M131 245h-58l230 453h52l231 -453h-57l-201 392z" />
    <glyph glyph-name="underscore" unicode="_" horiz-adv-x="500" 
d="M500 -119h-500v58h500v-58z" />
    <glyph glyph-name="quoteleft" unicode="&#x2018;" horiz-adv-x="222" 
d="M69 495v118c0 58 31 94 73 107v-37c-16 -10 -34 -26 -34 -66v-34h34v-88h-73z" />
    <glyph glyph-name="a" unicode="a" 
d="M411 191v81c-51 -21 -103 -25 -155 -29c-91 -7 -146 -40 -146 -110c0 -63 55 -93 112 -93c95 0 189 46 189 151zM227 291l83 11c22 2 59 8 79 17s22 36 22 54c0 61 -36 105 -129 105c-83 0 -140 -27 -151 -117h-61c9 122 100 171 213 171c105 0 188 -41 188 -161v-282
c0 -47 12 -58 63 -40v-47c-9 -3 -30 -10 -47 -10c-10 0 -18 1 -27 3c-40 6 -47 41 -48 77c-50 -56 -118 -86 -193 -86c-91 0 -173 49 -173 149c0 87 60 140 181 156z" />
    <glyph glyph-name="b" unicode="b" horiz-adv-x="611" 
d="M139 261c0 -125 62 -221 175 -221c101 0 176 73 177 203c5 130 -53 235 -177 235c-109 0 -175 -100 -175 -217zM139 91v-91h-60v720h60v-285c38 63 112 97 185 97c158 0 231 -129 231 -274c0 -153 -67 -272 -234 -272c-66 0 -145 37 -180 105h-2z" />
    <glyph glyph-name="c" unicode="c" 
d="M500 355h-61c-21 77 -74 123 -154 123c-123 0 -174 -112 -174 -220c0 -109 50 -218 174 -218c89 0 145 53 159 139h64c-21 -115 -93 -193 -223 -193c-165 0 -238 119 -238 272c0 144 83 274 238 274c119 0 197 -57 215 -177z" />
    <glyph glyph-name="d" unicode="d" horiz-adv-x="611" 
d="M472 261c0 117 -66 217 -175 217c-124 0 -182 -105 -177 -235c1 -130 76 -203 177 -203c113 0 175 96 175 221zM472 435v285h60v-720h-60v91h-2c-35 -68 -114 -105 -180 -105c-167 0 -234 119 -234 272c0 145 73 274 231 274c73 0 147 -34 185 -97z" />
    <glyph glyph-name="e" unicode="e" 
d="M109 295h338c0 101 -56 183 -164 183c-106 0 -162 -85 -174 -183zM511 245h-402c-1 -112 59 -205 174 -205c78 0 139 43 157 119h67c-30 -98 -92 -173 -224 -173c-166 0 -238 118 -238 271c0 151 90 275 238 275c142 0 229 -101 228 -287z" />
    <glyph glyph-name="f" unicode="f" horiz-adv-x="278" 
d="M97 468h-77v50h77v82c0 82 30 134 110 134c18 0 34 -1 50 -4v-55c-12 3 -25 5 -36 5c-62 0 -64 -51 -64 -98v-64h100v-50h-100v-468h-60v468z" />
    <glyph glyph-name="g" unicode="g" horiz-adv-x="611" 
d="M472 257c0 125 -62 221 -175 221c-101 0 -176 -73 -177 -203c-5 -130 53 -235 177 -235c109 0 175 100 175 217zM472 427v91h60v-468c0 -139 -46 -262 -243 -262c-152 0 -215 87 -219 149h64c18 -78 84 -95 155 -95c164 0 186 122 183 241c-38 -63 -112 -97 -185 -97
c-158 0 -231 129 -231 274c0 153 67 272 234 272c66 0 145 -37 180 -105h2z" />
    <glyph glyph-name="h" unicode="h" 
d="M132 0h-60v720h60v-274c48 51 95 86 167 86c63 0 121 -20 158 -74c25 -37 26 -76 26 -119v-339h-60v338c0 93 -38 140 -134 140c-74 0 -125 -48 -144 -101c-12 -33 -13 -62 -13 -98v-279z" />
    <glyph glyph-name="i" unicode="i" horiz-adv-x="222" 
d="M141 0h-60v518h60v-518zM144 631h-66v89h66v-89z" />
    <glyph glyph-name="j" unicode="j" horiz-adv-x="222" 
d="M88 518h60v-587c0 -88 -8 -135 -104 -135c-13 0 -26 1 -39 4v53c69 -9 83 16 83 70v595zM151 720v-89h-66v89h66z" />
    <glyph glyph-name="k" unicode="k" horiz-adv-x="500" 
d="M128 0h-60v720h60v-448l254 246h82l-194 -187l217 -331h-67l-194 289l-98 -93v-196z" />
    <glyph glyph-name="l" unicode="l" horiz-adv-x="222" 
d="M141 0h-60v720h60v-720z" />
    <glyph glyph-name="m" unicode="m" horiz-adv-x="833" 
d="M124 279v-279h-60v518h60v-78h2c31 59 93 92 160 92c96 0 130 -45 152 -100c34 67 95 100 169 100c141 0 161 -101 161 -205v-327h-60v358c0 74 -26 120 -111 120c-44 0 -87 -19 -117 -59c-26 -34 -34 -97 -34 -140v-279h-60v358c0 74 -26 120 -111 120
c-44 0 -87 -19 -117 -59c-26 -34 -34 -97 -34 -140z" />
    <glyph glyph-name="n" unicode="n" 
d="M132 279v-279h-60v518h60v-72c48 51 95 86 167 86c63 0 121 -20 158 -74c25 -37 26 -76 26 -119v-339h-60v338c0 93 -38 140 -134 140c-74 0 -125 -48 -144 -101c-12 -33 -13 -62 -13 -98z" />
    <glyph glyph-name="o" unicode="o" 
d="M278 -14c-132 2 -240 92 -240 273c0 151 80 273 240 273c162 0 240 -121 240 -273c0 -164 -95 -273 -240 -273zM454 259c-1 122 -49 219 -176 219c-126 0 -176 -107 -176 -219c0 -129 61 -219 176 -219c126 0 176 108 176 219z" />
    <glyph glyph-name="p" unicode="p" horiz-adv-x="611" 
d="M139 257c0 -117 66 -217 175 -217c124 0 182 105 177 235c-1 130 -76 203 -177 203c-113 0 -175 -96 -175 -221zM139 83v-287h-60v722h60v-91h2c35 68 114 105 180 105c167 0 234 -119 234 -272c0 -145 -73 -274 -231 -274c-73 0 -147 34 -185 97z" />
    <glyph glyph-name="q" unicode="q" horiz-adv-x="611" 
d="M472 261c0 117 -66 217 -175 217c-124 0 -182 -105 -177 -235c1 -130 76 -203 177 -203c113 0 175 96 175 221zM472 427v91h60v-722h-60v287c-38 -63 -112 -97 -185 -97c-158 0 -231 129 -231 274c0 153 67 272 234 272c66 0 145 -37 180 -105h2z" />
    <glyph glyph-name="r" unicode="r" horiz-adv-x="333" 
d="M135 254v-254h-60v518h60v-97h2c33 83 82 111 169 111v-65c-135 3 -171 -97 -171 -213z" />
    <glyph glyph-name="s" unicode="s" horiz-adv-x="500" 
d="M46 162h61c19 -89 65 -122 155 -122c87 0 128 46 128 96c0 150 -332 44 -332 248c0 86 67 148 182 148c112 0 185 -46 200 -163h-61c-11 80 -65 109 -140 109c-76 0 -117 -36 -117 -89c0 -141 332 -53 332 -252c0 -99 -89 -151 -211 -151s-192 78 -197 176z" />
    <glyph glyph-name="t" unicode="t" horiz-adv-x="278" 
d="M254 47v-49c-14 -3 -40 -12 -69 -12c-59 0 -92 26 -92 103v379h-73v50h73v144h60v-144h97v-50h-97v-355c0 -51 2 -73 52 -73c16 0 33 3 49 7z" />
    <glyph glyph-name="u" unicode="u" 
d="M423 236v282h60v-518h-60v72c-32 -36 -76 -86 -167 -86c-138 0 -184 83 -184 191v341h60v-340c0 -89 39 -138 133 -138c99 0 158 82 158 196z" />
    <glyph glyph-name="v" unicode="v" horiz-adv-x="500" 
d="M215 0l-198 518h65l168 -444l168 444h65l-201 -518h-67z" />
    <glyph glyph-name="w" unicode="w" horiz-adv-x="722" 
d="M396 518l114 -438l136 438h61l-168 -518h-64l-113 435h-2l-115 -435h-72l-158 518h60l134 -442l120 442h67z" />
    <glyph glyph-name="x" unicode="x" horiz-adv-x="500" 
d="M409 0l-157 224l-161 -224h-73l199 268l-183 250h74l143 -206l147 206h76l-187 -250l194 -268h-72z" />
    <glyph glyph-name="y" unicode="y" horiz-adv-x="500" 
d="M68 -197v56c16 -3 33 -6 50 -6c68 0 78 98 101 143l-201 522h67l166 -445l166 445h65l-193 -511c-49 -130 -81 -211 -164 -211c-21 0 -41 3 -57 7z" />
    <glyph glyph-name="z" unicode="z" horiz-adv-x="500" 
d="M467 0h-434v53l344 415h-321v50h398v-53l-344 -415h357v-50z" />
    <glyph glyph-name="braceleft" unicode="{" horiz-adv-x="333" 
d="M127 395v182c0 120 31 166 152 160l-2 2c-58 -19 -86 -59 -86 -123v-192c0 -77 -12 -130 -82 -149v-2c66 -15 82 -60 82 -135v-206c0 -67 25 -103 88 -121v-2c-118 -2 -152 42 -152 144v204c0 61 -14 103 -82 116v2c74 21 82 54 82 120z" />
    <glyph glyph-name="bar" unicode="|" horiz-adv-x="222" 
d="M81 0v739h60v-739h-60z" />
    <glyph glyph-name="braceright" unicode="}" horiz-adv-x="333" 
d="M203 157v-182c0 -120 -31 -166 -152 -160l2 -2c58 19 86 59 86 123v192c0 77 12 130 82 149v2c-66 15 -82 60 -82 135v206c0 67 -25 103 -88 121v2c118 2 152 -42 152 -144v-204c0 -61 14 -103 82 -116v-2c-74 -21 -82 -54 -82 -120z" />
    <glyph glyph-name="asciitilde" unicode="~" horiz-adv-x="660" 
d="M221 324c36 0 78 -18 117 -36c40 -18 77 -36 103 -36c45 0 80 51 99 87l40 -34c-28 -54 -73 -109 -140 -109c-37 0 -101 28 -135 42c-26 11 -55 30 -84 30c-53 0 -85 -55 -108 -94l-33 47c29 43 70 103 141 103z" />
    <glyph glyph-name="exclamdown" unicode="&#xa1;" horiz-adv-x="333" 
d="M144 352h45l14 -315v-224h-73v224zM203 445h-73v87h73v-87z" />
    <glyph glyph-name="cent" unicode="&#xa2;" 
d="M191 68l133 405c-13 4 -27 5 -41 5c-123 0 -174 -112 -174 -220c0 -76 25 -153 82 -190zM367 456l-135 -409c16 -4 33 -7 51 -7c89 0 145 53 159 139h64c-15 -103 -91 -193 -223 -193c-25 0 -47 3 -68 8l-45 -135h-47l49 150c-87 42 -127 136 -127 249
c0 176 102 274 238 274c21 0 41 -2 59 -5l40 120h48l-44 -134c61 -26 100 -78 112 -158h-61c-12 45 -36 80 -70 101z" />
    <glyph glyph-name="sterling" unicode="&#xa3;" 
d="M184 365h166v-42h-151c6 -21 11 -46 11 -68c0 -75 -47 -138 -96 -188l2 -2c25 13 57 27 89 27c45 0 74 -10 100 -21s50 -21 83 -21c47 0 77 27 108 57l34 -51c-59 -54 -94 -70 -174 -70c-24 0 -50 11 -79 22s-61 22 -98 22c-38 0 -72 -18 -105 -33l-35 58
c58 42 106 106 106 180c0 31 -7 60 -21 88h-99v42h81c-17 37 -53 77 -53 157c0 105 75 183 223 183c132 0 229 -83 227 -217h-66c-4 105 -65 163 -160 163c-80 0 -160 -43 -160 -132c0 -60 40 -103 67 -154z" />
    <glyph glyph-name="fraction" unicode="&#x2044;" horiz-adv-x="167" 
d="M-113 -14h-51l444 719h51z" />
    <glyph glyph-name="yen" unicode="&#xa5;" 
d="M80 720l197 -347l202 347h73l-171 -286h111v-54h-144l-38 -66v-42h182v-54h-182v-218h-64v218h-182v54h182v42l-38 66h-144v54h111l-171 286h76z" />
    <glyph glyph-name="florin" unicode="&#x192;" 
d="M539 714l-20 -49c-23 11 -39 19 -77 12c-77 -13 -80 -140 -104 -229h115v-48h-123l-64 -336c-28 -141 -71 -260 -198 -260c-18 0 -38 5 -55 11l19 57c20 -12 29 -13 52 -13c79 0 109 140 152 379l29 162h-113v48h121c27 111 46 286 196 286c26 0 47 -7 70 -20z" />
    <glyph glyph-name="section" unicode="&#xa7;" 
d="M363 341l-173 106c-53 -22 -88 -55 -88 -104c0 -51 46 -85 85 -111l178 -115c44 24 89 58 89 113c0 53 -51 87 -91 111zM281 102l-131 82c-64 40 -102 83 -102 151c0 67 48 119 107 144c-31 35 -53 66 -53 115c0 78 63 145 181 145c111 0 174 -69 173 -179h-54
c-2 83 -39 125 -124 125c-63 0 -112 -31 -112 -97c0 -137 342 -174 342 -348c0 -77 -52 -117 -110 -156c14 -13 58 -50 58 -110c0 -102 -80 -155 -176 -155c-113 0 -181 71 -186 182h61c0 -82 43 -128 126 -128c56 0 111 32 111 94c0 64 -64 104 -111 135z" />
    <glyph glyph-name="currency" unicode="&#xa4;" 
d="M32 110l43 42c-32 47 -48 91 -48 148c0 59 14 103 48 151l-43 43l52 53l44 -43c45 34 98 49 154 49c55 0 101 -18 146 -49l44 43l52 -53l-43 -43c34 -49 48 -95 48 -156c0 -56 -17 -97 -48 -143l43 -42l-52 -53l-44 43c-45 -33 -98 -50 -155 -50c-55 0 -101 19 -145 50
l-44 -43zM282 481c-104 2 -185 -77 -183 -181c-2 -97 81 -179 177 -179c100 0 182 80 182 182c0 95 -79 180 -176 178z" />
    <glyph glyph-name="quotesingle" unicode="'" horiz-adv-x="222" 
d="M85 494v226h52v-226h-52z" />
    <glyph glyph-name="quotedblleft" unicode="&#x201c;" horiz-adv-x="389" 
d="M237 495v118c0 58 31 94 73 107v-37c-16 -10 -34 -26 -34 -66v-34h34v-88h-73zM86 495v118c0 58 31 94 73 107v-37c-16 -10 -34 -26 -34 -66v-34h34v-88h-73z" />
    <glyph glyph-name="guillemotleft" unicode="&#xab;" 
d="M297 228v63l146 113v-63l-104 -82l104 -80v-62zM113 228v63l146 113v-63l-104 -82l104 -80v-62z" />
    <glyph glyph-name="guilsinglleft" unicode="&#x2039;" horiz-adv-x="389" 
d="M121 228v63l146 113v-63l-104 -82l104 -80v-62z" />
    <glyph glyph-name="guilsinglright" unicode="&#x203a;" horiz-adv-x="389" 
d="M268 293v-63l-146 -113v63l104 82l-104 80v62z" />
    <glyph glyph-name="fi" unicode="&#xfb01;" horiz-adv-x="500" 
d="M92 468h-79v50h79v82c0 82 30 134 110 134c18 0 34 -1 50 -4v-55c-12 3 -25 5 -36 5c-62 0 -64 -51 -64 -98v-64h98v-50h-98v-468h-60v468zM432 0h-60v518h60v-518zM435 720v-89h-66v89h66z" />
    <glyph glyph-name="fl" unicode="&#xfb02;" horiz-adv-x="500" 
d="M92 468h-79v50h79v82c0 82 30 134 110 134c18 0 34 -1 50 -4v-55c-12 3 -25 5 -36 5c-62 0 -64 -51 -64 -98v-64h98v-50h-98v-468h-60v468zM432 0h-60v720h60v-720z" />
    <glyph glyph-name="endash" unicode="&#x2013;" horiz-adv-x="500" 
d="M500 282v-44h-500v44h500z" />
    <glyph glyph-name="dagger" unicode="&#x2020;" 
d="M248 -166v602h-211v54h211v230h60v-230h211v-54h-211v-602h-60z" />
    <glyph glyph-name="daggerdbl" unicode="&#x2021;" 
d="M248 109v334h-211v54h211v223h60v-223h211v-54h-211v-334h211v-54h-211v-221h-60v221h-211v54h211z" />
    <glyph glyph-name="periodcentered" unicode="&#xb7;" horiz-adv-x="278" 
d="M139 398c26 0 48 -22 48 -48s-21 -49 -48 -49s-49 23 -49 49s24 48 49 48z" />
    <glyph glyph-name="paragraph" unicode="&#xb6;" horiz-adv-x="650" 
d="M258 -146v482c-102 -1 -192 87 -192 190c0 124 83 194 223 194h217v-866h-60v799h-128v-799h-60z" />
    <glyph glyph-name="bullet" unicode="&#x2022;" horiz-adv-x="500" 
d="M430 359c0 -98 -81 -179 -181 -179c-98 0 -179 81 -179 179c0 100 81 181 179 181c100 0 181 -81 181 -181z" />
    <glyph glyph-name="quotesinglbase" unicode="&#x201a;" horiz-adv-x="222" 
d="M153 88v-118c0 -58 -31 -94 -73 -107v37c16 10 34 26 34 66v34h-34v88h73z" />
    <glyph glyph-name="quotedblbase" unicode="&#x201e;" horiz-adv-x="389" 
d="M303 88v-118c0 -58 -31 -94 -73 -107v37c16 10 34 26 34 66v34h-34v88h73zM152 88v-118c0 -58 -31 -94 -73 -107v37c16 10 34 26 34 66v34h-34v88h73z" />
    <glyph glyph-name="quotedblright" unicode="&#x201d;" horiz-adv-x="389" 
d="M303 720v-118c0 -58 -31 -94 -73 -107v37c16 10 34 26 34 66v34h-34v88h73zM152 720v-118c0 -58 -31 -94 -73 -107v37c16 10 34 26 34 66v34h-34v88h73z" />
    <glyph glyph-name="guillemotright" unicode="&#xbb;" 
d="M443 293v-63l-146 -113v63l104 82l-104 80v62zM259 293v-63l-146 -113v63l104 82l-104 80v62z" />
    <glyph glyph-name="ellipsis" unicode="&#x2026;" horiz-adv-x="1000" 
d="M204 0h-73v88h73v-88zM537 0h-73v88h73v-88zM870 0h-73v88h73v-88z" />
    <glyph glyph-name="perthousand" unicode="&#x2030;" horiz-adv-x="1000" 
d="M836 299c82 0 149 -69 149 -150c0 -82 -67 -149 -149 -149s-150 67 -150 149c0 81 69 150 150 150zM836 57c48 0 92 44 92 92c0 49 -43 93 -92 93c-50 0 -93 -43 -93 -93c0 -49 44 -92 93 -92zM163 698c81 0 150 -67 150 -149c0 -83 -68 -150 -150 -150s-149 69 -149 150
s68 149 149 149zM163 641c-50 0 -92 -43 -92 -92s43 -93 92 -93s93 44 93 93c1 49 -44 92 -93 92zM139 -14h-53l407 719h53zM473 299c81 0 150 -68 150 -150c0 -83 -68 -149 -150 -149s-149 68 -149 149s68 150 149 150zM473 57c48 0 93 43 93 92s-43 93 -93 93
s-92 -44 -92 -93s44 -92 92 -92z" />
    <glyph glyph-name="questiondown" unicode="&#xbf;" horiz-adv-x="500" 
d="M401 16h61c10 -133 -86 -223 -216 -223c-136 0 -218 75 -218 188c0 116 119 158 177 250c22 35 21 79 21 119h58c1 -73 -3 -131 -55 -186c-58 -61 -137 -114 -137 -188c0 -72 57 -129 156 -129c98 0 156 74 153 169zM217 532h73v-88h-73v88z" />
    <glyph glyph-name="grave" unicode="`" horiz-adv-x="333" 
d="M183 574l-138 139h78l111 -139h-51z" />
    <glyph glyph-name="acute" unicode="&#xb4;" horiz-adv-x="333" 
d="M160 574h-51l111 139h77z" />
    <glyph glyph-name="circumflex" unicode="&#x2c6;" horiz-adv-x="333" 
d="M171 676l-82 -102h-65l114 139h67l113 -139h-65z" />
    <glyph glyph-name="tilde" unicode="&#x2dc;" horiz-adv-x="333" 
d="M52 586h-36c2 24 10 43 20 59c20 28 54 44 88 36c37 -7 88 -43 123 -43c29 0 39 26 44 50h38c-1 -13 -5 -26 -8 -38c-14 -32 -36 -60 -74 -60c-55 0 -100 45 -146 45c-30 0 -41 -24 -49 -49z" />
    <glyph glyph-name="macron" unicode="&#xaf;" horiz-adv-x="333" 
d="M23 612v45h296v-45h-296z" />
    <glyph glyph-name="breve" unicode="&#x2d8;" horiz-adv-x="333" 
d="M28 706h39c11 -55 50 -81 105 -81c56 0 93 25 107 81h37c-9 -84 -67 -126 -149 -126c-79 0 -133 47 -139 126z" />
    <glyph glyph-name="dotaccent" unicode="&#x2d9;" horiz-adv-x="333" 
d="M134 584v102h65v-102h-65z" />
    <glyph glyph-name="dieresis" unicode="&#xa8;" horiz-adv-x="333" 
d="M60 584v102h65v-102h-65zM219 584v102h65v-102h-65z" />
    <glyph glyph-name="ring" unicode="&#x2da;" horiz-adv-x="333" 
d="M167 578c-54 0 -100 45 -100 99c0 53 47 100 100 100c54 0 99 -47 99 -100c0 -54 -45 -99 -99 -99zM167 611c35 0 66 31 66 66s-30 67 -66 67s-67 -31 -67 -67s32 -66 67 -66z" />
    <glyph glyph-name="cedilla" unicode="&#xb8;" horiz-adv-x="333" 
d="M54 -188l15 30c21 -7 42 -15 64 -15c29 0 66 13 66 47c0 27 -25 39 -50 39c-15 0 -29 -4 -44 -8l-15 13l60 82h39l-47 -59c12 3 24 6 36 6c44 0 73 -27 77 -52c13 -72 -46 -102 -110 -102c-31 0 -62 8 -91 19z" />
    <glyph glyph-name="hungarumlaut" unicode="&#x2dd;" horiz-adv-x="333" 
d="M160 574h-51l111 139h77zM322 574h-51l111 139h77z" />
    <glyph glyph-name="ogonek" unicode="&#x2db;" horiz-adv-x="333" 
d="M149 0h50v-2c-32 -16 -80 -47 -80 -87c0 -39 33 -57 67 -57c15 0 28 3 42 9v-44c-17 -6 -34 -9 -52 -9c-52 0 -102 30 -102 87c0 47 36 83 75 103z" />
    <glyph glyph-name="caron" unicode="&#x2c7;" horiz-adv-x="333" 
d="M171 611l82 102h65l-113 -139h-67l-114 139h65z" />
    <glyph glyph-name="emdash" unicode="&#x2014;" horiz-adv-x="1000" 
d="M1000 238h-1000v44h1000v-44z" />
    <glyph glyph-name="AE" unicode="&#xc6;" horiz-adv-x="1000" 
d="M73 0h-68l313 720h630v-58h-408v-260h371v-58h-371v-286h420v-58h-488v226h-303zM358 662l-161 -378h275v378h-114z" />
    <glyph glyph-name="ordfeminine" unicode="&#xaa;" horiz-adv-x="334" 
d="M245 534v49c-33 -13 -67 -15 -101 -18c-59 -4 -97 -24 -97 -66c0 -38 38 -58 75 -58c62 0 123 30 123 93zM8 307v39h317v-39h-317zM125 594l54 7c14 1 39 4 52 10c13 5 14 21 14 32c0 37 -24 66 -84 66c-54 0 -91 -19 -98 -73h-40c6 73 65 103 139 103
c68 0 122 -25 122 -97v-169c0 -28 8 -35 41 -24v-28c-12 -4 -22 -8 -48 -5c-26 4 -31 25 -32 47c-32 -34 -76 -52 -125 -52c-59 0 -112 29 -112 89c0 53 39 84 117 94z" />
    <glyph glyph-name="Lslash" unicode="&#x141;" 
d="M535 0h-454v360l-81 -40v60l81 40v300h68v-250l81 40v-60l-81 -40v-352h386v-58z" />
    <glyph glyph-name="Oslash" unicode="&#xd8;" horiz-adv-x="778" 
d="M174 147l398 457c-38 42 -96 77 -188 77c-185 0 -266 -156 -266 -322c0 -80 18 -154 56 -212zM604 560l-397 -453c42 -42 102 -68 179 -68c187 0 267 151 267 320c0 70 -15 143 -49 201zM614 652l83 95l39 -35l-87 -100c38 -43 72 -134 72 -253
c0 -207 -114 -378 -336 -378c-91 0 -164 29 -219 79l-85 -97l-39 34l89 101c-54 67 -81 159 -81 261c0 213 122 380 332 380c90 0 170 -26 232 -87z" />
    <glyph glyph-name="OE" unicode="&#x152;" horiz-adv-x="1000" 
d="M547 221v277c0 119 -76 183 -201 183c-151 0 -237 -109 -237 -320c0 -188 73 -322 245 -322c50 0 106 22 144 54c41 35 49 76 49 128zM550 0v72c-47 -48 -104 -91 -201 -91c-220 0 -308 182 -308 378c0 209 91 380 305 380c85 0 158 -19 204 -95v76h407v-58h-342v-260
h320v-58h-320v-286h352v-58h-417z" />
    <glyph glyph-name="ordmasculine" unicode="&#xba;" horiz-adv-x="334" 
d="M167 411c-86 2 -156 56 -156 164c0 91 52 164 156 164c105 0 156 -73 156 -164c0 -98 -62 -164 -156 -164zM50 575c0 -77 42 -134 117 -134c82 0 117 68 117 134c0 73 -34 134 -117 134c-82 0 -117 -67 -117 -134zM11 307v39h312v-39h-312z" />
    <glyph glyph-name="ae" unicode="&#xe6;" horiz-adv-x="889" 
d="M393 204v70c-94 -50 -290 -3 -290 -133c0 -67 42 -101 108 -101c121 0 182 67 182 164zM457 295h326c0 99 -53 183 -158 183c-126 0 -168 -110 -168 -183zM219 295l57 6c103 11 117 23 117 64c0 88 -34 113 -126 113c-80 0 -134 -31 -144 -114h-62c7 117 95 168 204 168
c68 0 152 -16 181 -85c45 67 102 85 181 85c173 0 220 -128 220 -287h-390c0 -112 49 -205 172 -205c79 0 131 46 151 120h63c-26 -111 -103 -174 -219 -174c-90 0 -153 36 -200 114c-38 -52 -89 -114 -218 -114c-93 0 -167 46 -167 146c0 90 59 150 180 163z" />
    <glyph glyph-name="dotlessi" unicode="&#x131;" horiz-adv-x="222" 
d="M138 0h-60v518h60v-518z" />
    <glyph glyph-name="lslash" unicode="&#x142;" horiz-adv-x="222" 
d="M141 0h-60v340l-71 -40v60l71 40v320h60v-270l71 40v-60l-71 -40v-390z" />
    <glyph glyph-name="oslash" unicode="&#xf8;" 
d="M135 124l260 309c-18 21 -56 45 -115 45c-126 0 -176 -108 -176 -220c0 -62 14 -107 31 -134zM425 397l-263 -312c30 -30 76 -45 118 -45c126 0 176 107 176 218c0 51 -7 100 -31 139zM125 41l-54 -64l-36 29l58 68c-37 49 -53 114 -53 184c0 151 80 274 240 274
c64 0 115 -19 154 -53l52 62l35 -31l-55 -65c36 -48 54 -114 54 -187c0 -161 -87 -272 -240 -272c-74 0 -126 28 -155 55z" />
    <glyph glyph-name="oe" unicode="&#x153;" horiz-adv-x="944" 
d="M904 245h-393c-8 -74 38 -205 175 -205c76 0 134 48 150 120h61c-24 -113 -104 -174 -213 -174c-98 0 -169 54 -205 126c-41 -84 -121 -126 -212 -126c-138 0 -231 106 -231 272c0 151 71 274 235 274c97 0 165 -38 208 -125c44 84 109 125 205 125
c181 0 220 -138 220 -287zM100 249c-1 -113 56 -209 172 -209c114 0 175 94 175 229c0 121 -61 209 -181 209c-108 0 -170 -88 -166 -229zM511 295h329c0 105 -48 183 -159 183c-102 0 -165 -84 -170 -183z" />
    <glyph glyph-name="germandbls" unicode="&#xdf;" horiz-adv-x="500" 
d="M211 375v50c89 2 157 32 157 124c0 75 -37 131 -126 131c-117 0 -130 -59 -130 -147v-533h-60v544c0 123 61 190 187 190c115 0 193 -70 193 -186c0 -64 -33 -108 -84 -145c75 -26 111 -104 111 -179c0 -155 -79 -238 -211 -238c-13 0 -28 2 -37 5v53
c98 -18 184 36 184 155c0 126 -57 176 -184 176z" />
    <glyph glyph-name="Aacute" unicode="&#xc1;" horiz-adv-x="667" 
d="M85 0h-70l283 720h77l276 -720h-70l-83 226h-328zM334 662l-141 -378h282zM327 776h-51l111 139h77z" />
    <glyph glyph-name="Acircumflex" unicode="&#xc2;" horiz-adv-x="667" 
d="M85 0h-70l283 720h77l276 -720h-70l-83 226h-328zM334 662l-141 -378h282zM338 878l-82 -102h-65l114 139h67l113 -139h-65z" />
    <glyph glyph-name="Adieresis" unicode="&#xc4;" horiz-adv-x="667" 
d="M85 0h-70l283 720h77l276 -720h-70l-83 226h-328zM334 662l-141 -378h282zM227 786v102h65v-102h-65zM386 786v102h65v-102h-65z" />
    <glyph glyph-name="Agrave" unicode="&#xc0;" horiz-adv-x="667" 
d="M85 0h-70l283 720h77l276 -720h-70l-83 226h-328zM334 662l-141 -378h282zM350 776l-138 139h78l111 -139h-51z" />
    <glyph glyph-name="Aring" unicode="&#xc5;" horiz-adv-x="667" 
d="M85 0h-70l283 720h77l276 -720h-70l-83 226h-328zM334 662l-141 -378h282zM354 780c-54 0 -100 45 -100 99c0 53 47 100 100 100c54 0 99 -47 99 -100c0 -54 -45 -99 -99 -99zM354 813c35 0 66 31 66 66s-30 67 -66 67s-67 -31 -67 -67s32 -66 67 -66z" />
    <glyph glyph-name="Atilde" unicode="&#xc3;" horiz-adv-x="667" 
d="M85 0h-70l283 720h77l276 -720h-70l-83 226h-328zM334 662l-141 -378h282zM219 788h-36c2 24 10 43 20 59c20 28 54 44 88 36c37 -7 88 -43 123 -43c29 0 39 26 44 50h38c-1 -13 -5 -26 -8 -38c-14 -32 -36 -60 -74 -60c-55 0 -100 45 -146 45c-30 0 -41 -24 -49 -49z
" />
    <glyph glyph-name="Ccedilla" unicode="&#xc7;" horiz-adv-x="722" 
d="M662 511h-70c-28 123 -104 170 -227 170c-174 0 -249 -149 -249 -319c0 -161 59 -323 255 -323c124 0 201 84 228 198h71c-32 -139 -119 -256 -312 -256c-222 0 -310 175 -310 379c0 275 144 379 335 379c148 0 256 -79 279 -228zM249 -188l15 30c21 -7 42 -15 64 -15
c29 0 66 13 66 47c0 27 -25 39 -50 39c-15 0 -29 -4 -44 -8l-15 13l60 82h39l-47 -59c12 3 24 6 36 6c44 0 73 -27 77 -52c13 -72 -46 -102 -110 -102c-31 0 -62 8 -91 19z" />
    <glyph glyph-name="Eacute" unicode="&#xc9;" horiz-adv-x="611" 
d="M570 0h-489v720h479v-58h-411v-260h371v-58h-371v-286h421v-58zM299 776h-51l111 139h77z" />
    <glyph glyph-name="Ecircumflex" unicode="&#xca;" horiz-adv-x="611" 
d="M570 0h-489v720h479v-58h-411v-260h371v-58h-371v-286h421v-58zM310 878l-82 -102h-65l114 139h67l113 -139h-65z" />
    <glyph glyph-name="Edieresis" unicode="&#xcb;" horiz-adv-x="611" 
d="M570 0h-489v720h479v-58h-411v-260h371v-58h-371v-286h421v-58zM199 786v102h65v-102h-65zM358 786v102h65v-102h-65z" />
    <glyph glyph-name="Egrave" unicode="&#xc8;" horiz-adv-x="611" 
d="M570 0h-489v720h479v-58h-411v-260h371v-58h-371v-286h421v-58zM322 776l-138 139h78l111 -139h-51z" />
    <glyph glyph-name="Eth" unicode="&#xd0;" horiz-adv-x="722" 
d="M149 662v-251h121v-58h-121v-295h163c61 0 114 4 169 33c96 49 120 172 120 270c0 105 -23 220 -124 274c-43 23 -105 27 -165 27h-163zM81 411v309h246c80 0 155 -5 222 -54c95 -69 120 -209 120 -305c0 -95 -21 -201 -87 -273c-66 -74 -160 -88 -255 -88h-246v353h-71
v58h71z" />
    <glyph glyph-name="Iacute" unicode="&#xcd;" horiz-adv-x="278" 
d="M173 0h-68v720h68v-720zM113 776h-51l111 139h77z" />
    <glyph glyph-name="Icircumflex" unicode="&#xce;" horiz-adv-x="278" 
d="M173 0h-68v720h68v-720zM124 878l-82 -102h-65l114 139h67l113 -139h-65z" />
    <glyph glyph-name="Idieresis" unicode="&#xcf;" horiz-adv-x="278" 
d="M173 0h-68v720h68v-720zM13 786v102h65v-102h-65zM172 786v102h65v-102h-65z" />
    <glyph glyph-name="Igrave" unicode="&#xcc;" horiz-adv-x="278" 
d="M173 0h-68v720h68v-720zM156 776l-138 139h78l111 -139h-51z" />
    <glyph glyph-name="Ntilde" unicode="&#xd1;" horiz-adv-x="722" 
d="M563 0l-414 628h-2v-628h-68v720h77l416 -629h2v629h68v-720h-79zM247 788h-36c2 24 10 43 20 59c20 28 54 44 88 36c37 -7 88 -43 123 -43c29 0 39 26 44 50h38c-1 -13 -5 -26 -8 -38c-14 -32 -36 -60 -74 -60c-55 0 -100 45 -146 45c-30 0 -41 -24 -49 -49z" />
    <glyph glyph-name="Oacute" unicode="&#xd3;" horiz-adv-x="778" 
d="M53 359c-1 210 117 380 332 380c225 0 339 -169 339 -380c0 -207 -114 -378 -336 -378s-335 171 -335 378zM389 39c187 0 267 152 267 320c0 200 -103 322 -269 322c-185 0 -266 -155 -266 -322c0 -170 80 -320 268 -320zM383 776h-51l111 139h77z" />
    <glyph glyph-name="Ocircumflex" unicode="&#xd4;" horiz-adv-x="778" 
d="M53 359c-1 210 117 380 332 380c225 0 339 -169 339 -380c0 -207 -114 -378 -336 -378s-335 171 -335 378zM389 39c187 0 267 152 267 320c0 200 -103 322 -269 322c-185 0 -266 -155 -266 -322c0 -170 80 -320 268 -320zM394 878l-82 -102h-65l114 139h67l113 -139h-65z
" />
    <glyph glyph-name="Odieresis" unicode="&#xd6;" horiz-adv-x="778" 
d="M53 359c-1 210 117 380 332 380c225 0 339 -169 339 -380c0 -207 -114 -378 -336 -378s-335 171 -335 378zM389 39c187 0 267 152 267 320c0 200 -103 322 -269 322c-185 0 -266 -155 -266 -322c0 -170 80 -320 268 -320zM283 786v102h65v-102h-65zM442 786v102h65v-102
h-65z" />
    <glyph glyph-name="Ograve" unicode="&#xd2;" horiz-adv-x="778" 
d="M53 359c-1 210 117 380 332 380c225 0 339 -169 339 -380c0 -207 -114 -378 -336 -378s-335 171 -335 378zM389 39c187 0 267 152 267 320c0 200 -103 322 -269 322c-185 0 -266 -155 -266 -322c0 -170 80 -320 268 -320zM406 776l-138 139h78l111 -139h-51z" />
    <glyph glyph-name="Otilde" unicode="&#xd5;" horiz-adv-x="778" 
d="M53 359c-1 210 117 380 332 380c225 0 339 -169 339 -380c0 -207 -114 -378 -336 -378s-335 171 -335 378zM389 39c187 0 267 152 267 320c0 200 -103 322 -269 322c-185 0 -266 -155 -266 -322c0 -170 80 -320 268 -320zM275 788h-36c2 24 10 43 20 59
c20 28 54 44 88 36c37 -7 88 -43 123 -43c29 0 39 26 44 50h38c-1 -13 -5 -26 -8 -38c-14 -32 -36 -60 -74 -60c-55 0 -100 45 -146 45c-30 0 -41 -24 -49 -49z" />
    <glyph glyph-name="Scaron" unicode="&#x160;" horiz-adv-x="611" 
d="M43 215h66c11 -129 97 -176 207 -176c129 0 183 70 183 149c0 223 -439 75 -439 358c0 100 83 193 244 193c162 0 243 -98 242 -215h-65c0 110 -85 157 -177 157c-138 0 -188 -85 -176 -159c31 -186 439 -52 439 -331c0 -132 -97 -210 -263 -210c-150 0 -261 78 -261 234
zM310 813l82 102h65l-113 -139h-67l-114 139h65z" />
    <glyph glyph-name="Thorn" unicode="&#xde;" horiz-adv-x="611" 
d="M146 0h-68v720h68v-150h195c187 0 235 -93 235 -201c0 -161 -143 -201 -276 -201h-154v-168zM146 226h156c127 0 206 26 206 148c0 90 -58 138 -186 138h-176v-286z" />
    <glyph glyph-name="Uacute" unicode="&#xda;" horiz-adv-x="722" 
d="M82 271v449h68v-429c0 -178 64 -252 211 -252c155 0 211 82 211 252v429h68v-449c0 -187 -93 -290 -279 -290c-188 0 -279 106 -279 290zM355 776h-51l111 139h77z" />
    <glyph glyph-name="Ucircumflex" unicode="&#xdb;" horiz-adv-x="722" 
d="M82 271v449h68v-429c0 -178 64 -252 211 -252c155 0 211 82 211 252v429h68v-449c0 -187 -93 -290 -279 -290c-188 0 -279 106 -279 290zM366 878l-82 -102h-65l114 139h67l113 -139h-65z" />
    <glyph glyph-name="Udieresis" unicode="&#xdc;" horiz-adv-x="722" 
d="M82 271v449h68v-429c0 -178 64 -252 211 -252c155 0 211 82 211 252v429h68v-449c0 -187 -93 -290 -279 -290c-188 0 -279 106 -279 290zM255 786v102h65v-102h-65zM414 786v102h65v-102h-65z" />
    <glyph glyph-name="Ugrave" unicode="&#xd9;" horiz-adv-x="722" 
d="M82 271v449h68v-429c0 -178 64 -252 211 -252c155 0 211 82 211 252v429h68v-449c0 -187 -93 -290 -279 -290c-188 0 -279 106 -279 290zM378 776l-138 139h78l111 -139h-51z" />
    <glyph glyph-name="Yacute" unicode="&#xdd;" horiz-adv-x="611" 
d="M90 720l212 -347l217 347h79l-261 -406v-314h-68v309l-257 411h78zM299 776h-51l111 139h77z" />
    <glyph glyph-name="Ydieresis" unicode="&#x178;" horiz-adv-x="611" 
d="M90 720l212 -347l217 347h79l-261 -406v-314h-68v309l-257 411h78zM199 786v102h65v-102h-65zM358 786v102h65v-102h-65z" />
    <glyph glyph-name="Zcaron" unicode="&#x17d;" horiz-adv-x="611" 
d="M579 0h-548v57l461 605h-422v58h506v-57l-461 -605h464v-58zM310 813l82 102h65l-113 -139h-67l-114 139h65z" />
    <glyph glyph-name="aacute" unicode="&#xe1;" 
d="M411 191v81c-51 -21 -103 -25 -155 -29c-91 -7 -146 -40 -146 -110c0 -63 55 -93 112 -93c95 0 189 46 189 151zM227 291l83 11c22 2 59 8 79 17s22 36 22 54c0 61 -36 105 -129 105c-83 0 -140 -27 -151 -117h-61c9 122 100 171 213 171c105 0 188 -41 188 -161v-282
c0 -47 12 -58 63 -40v-47c-9 -3 -30 -10 -47 -10c-10 0 -18 1 -27 3c-40 6 -47 41 -48 77c-50 -56 -118 -86 -193 -86c-91 0 -173 49 -173 149c0 87 60 140 181 156zM272 574h-51l111 139h77z" />
    <glyph glyph-name="acircumflex" unicode="&#xe2;" 
d="M411 191v81c-51 -21 -103 -25 -155 -29c-91 -7 -146 -40 -146 -110c0 -63 55 -93 112 -93c95 0 189 46 189 151zM227 291l83 11c22 2 59 8 79 17s22 36 22 54c0 61 -36 105 -129 105c-83 0 -140 -27 -151 -117h-61c9 122 100 171 213 171c105 0 188 -41 188 -161v-282
c0 -47 12 -58 63 -40v-47c-9 -3 -30 -10 -47 -10c-10 0 -18 1 -27 3c-40 6 -47 41 -48 77c-50 -56 -118 -86 -193 -86c-91 0 -173 49 -173 149c0 87 60 140 181 156zM283 676l-82 -102h-65l114 139h67l113 -139h-65z" />
    <glyph glyph-name="adieresis" unicode="&#xe4;" 
d="M411 191v81c-51 -21 -103 -25 -155 -29c-91 -7 -146 -40 -146 -110c0 -63 55 -93 112 -93c95 0 189 46 189 151zM227 291l83 11c22 2 59 8 79 17s22 36 22 54c0 61 -36 105 -129 105c-83 0 -140 -27 -151 -117h-61c9 122 100 171 213 171c105 0 188 -41 188 -161v-282
c0 -47 12 -58 63 -40v-47c-9 -3 -30 -10 -47 -10c-10 0 -18 1 -27 3c-40 6 -47 41 -48 77c-50 -56 -118 -86 -193 -86c-91 0 -173 49 -173 149c0 87 60 140 181 156zM172 584v102h65v-102h-65zM331 584v102h65v-102h-65z" />
    <glyph glyph-name="agrave" unicode="&#xe0;" 
d="M411 191v81c-51 -21 -103 -25 -155 -29c-91 -7 -146 -40 -146 -110c0 -63 55 -93 112 -93c95 0 189 46 189 151zM227 291l83 11c22 2 59 8 79 17s22 36 22 54c0 61 -36 105 -129 105c-83 0 -140 -27 -151 -117h-61c9 122 100 171 213 171c105 0 188 -41 188 -161v-282
c0 -47 12 -58 63 -40v-47c-9 -3 -30 -10 -47 -10c-10 0 -18 1 -27 3c-40 6 -47 41 -48 77c-50 -56 -118 -86 -193 -86c-91 0 -173 49 -173 149c0 87 60 140 181 156zM295 574l-138 139h78l111 -139h-51z" />
    <glyph glyph-name="aring" unicode="&#xe5;" 
d="M411 191v81c-51 -21 -103 -25 -155 -29c-91 -7 -146 -40 -146 -110c0 -63 55 -93 112 -93c95 0 189 46 189 151zM227 291l83 11c22 2 59 8 79 17s22 36 22 54c0 61 -36 105 -129 105c-83 0 -140 -27 -151 -117h-61c9 122 100 171 213 171c105 0 188 -41 188 -161v-282
c0 -47 12 -58 63 -40v-47c-9 -3 -30 -10 -47 -10c-10 0 -18 1 -27 3c-40 6 -47 41 -48 77c-50 -56 -118 -86 -193 -86c-91 0 -173 49 -173 149c0 87 60 140 181 156zM279 578c-54 0 -100 45 -100 99c0 53 47 100 100 100c54 0 99 -47 99 -100c0 -54 -45 -99 -99 -99z
M279 611c35 0 66 31 66 66s-30 67 -66 67s-67 -31 -67 -67s32 -66 67 -66z" />
    <glyph glyph-name="atilde" unicode="&#xe3;" 
d="M411 191v81c-51 -21 -103 -25 -155 -29c-91 -7 -146 -40 -146 -110c0 -63 55 -93 112 -93c95 0 189 46 189 151zM227 291l83 11c22 2 59 8 79 17s22 36 22 54c0 61 -36 105 -129 105c-83 0 -140 -27 -151 -117h-61c9 122 100 171 213 171c105 0 188 -41 188 -161v-282
c0 -47 12 -58 63 -40v-47c-9 -3 -30 -10 -47 -10c-10 0 -18 1 -27 3c-40 6 -47 41 -48 77c-50 -56 -118 -86 -193 -86c-91 0 -173 49 -173 149c0 87 60 140 181 156zM164 586h-36c2 24 10 43 20 59c20 28 54 44 88 36c37 -7 88 -43 123 -43c29 0 39 26 44 50h38
c-1 -13 -5 -26 -8 -38c-14 -32 -36 -60 -74 -60c-55 0 -100 45 -146 45c-30 0 -41 -24 -49 -49z" />
    <glyph glyph-name="brokenbar" unicode="&#xa6;" horiz-adv-x="222" 
d="M81 0v296h60v-296h-60zM81 443v296h60v-296h-60z" />
    <glyph glyph-name="ccedilla" unicode="&#xe7;" 
d="M500 355h-61c-21 77 -74 123 -154 123c-123 0 -174 -112 -174 -220c0 -109 50 -218 174 -218c89 0 145 53 159 139h64c-21 -115 -93 -193 -223 -193c-165 0 -238 119 -238 272c0 144 83 274 238 274c119 0 197 -57 215 -177zM166 -188l15 30c21 -7 42 -15 64 -15
c29 0 66 13 66 47c0 27 -25 39 -50 39c-15 0 -29 -4 -44 -8l-15 13l60 82h39l-47 -59c12 3 24 6 36 6c44 0 73 -27 77 -52c13 -72 -46 -102 -110 -102c-31 0 -62 8 -91 19z" />
    <glyph glyph-name="copyright" unicode="&#xa9;" horiz-adv-x="800" 
d="M401 -19c-210 0 -380 170 -380 380c0 208 170 378 380 378c209 0 378 -170 378 -378c0 -210 -169 -380 -378 -380zM401 31c184 0 318 144 318 330c0 184 -134 328 -318 328c-185 0 -320 -144 -320 -328c0 -186 135 -330 320 -330zM539 292h54c-9 -91 -88 -147 -175 -147
c-127 0 -210 95 -210 219c0 125 78 217 207 217c91 0 164 -52 178 -143h-54c-11 60 -63 99 -123 99c-100 0 -150 -78 -150 -172c0 -91 54 -176 152 -176c59 0 113 40 121 103z" />
    <glyph glyph-name="degree" unicode="&#xb0;" horiz-adv-x="400" 
d="M350 555c0 -83 -68 -150 -150 -150c-83 0 -150 67 -150 150c-1 82 67 150 150 150c82 0 150 -68 150 -150zM310 555c0 60 -50 110 -111 110c-60 0 -110 -50 -109 -110c0 -61 49 -110 110 -110c60 0 110 49 110 110z" />
    <glyph glyph-name="divide" unicode="&#xf7;" horiz-adv-x="660" 
d="M80 220v60h500v-60h-500zM367 0h-73v88h73v-88zM367 412h-73v88h73v-88z" />
    <glyph glyph-name="eacute" unicode="&#xe9;" 
d="M109 295h338c0 101 -56 183 -164 183c-106 0 -162 -85 -174 -183zM511 245h-402c-1 -112 59 -205 174 -205c78 0 139 43 157 119h67c-30 -98 -92 -173 -224 -173c-166 0 -238 118 -238 271c0 151 90 275 238 275c142 0 229 -101 228 -287zM272 574h-51l111 139h77z" />
    <glyph glyph-name="ecircumflex" unicode="&#xea;" 
d="M109 295h338c0 101 -56 183 -164 183c-106 0 -162 -85 -174 -183zM511 245h-402c-1 -112 59 -205 174 -205c78 0 139 43 157 119h67c-30 -98 -92 -173 -224 -173c-166 0 -238 118 -238 271c0 151 90 275 238 275c142 0 229 -101 228 -287zM283 676l-82 -102h-65l114 139
h67l113 -139h-65z" />
    <glyph glyph-name="edieresis" unicode="&#xeb;" 
d="M109 295h338c0 101 -56 183 -164 183c-106 0 -162 -85 -174 -183zM511 245h-402c-1 -112 59 -205 174 -205c78 0 139 43 157 119h67c-30 -98 -92 -173 -224 -173c-166 0 -238 118 -238 271c0 151 90 275 238 275c142 0 229 -101 228 -287zM172 584v102h65v-102h-65z
M331 584v102h65v-102h-65z" />
    <glyph glyph-name="egrave" unicode="&#xe8;" 
d="M109 295h338c0 101 -56 183 -164 183c-106 0 -162 -85 -174 -183zM511 245h-402c-1 -112 59 -205 174 -205c78 0 139 43 157 119h67c-30 -98 -92 -173 -224 -173c-166 0 -238 118 -238 271c0 151 90 275 238 275c142 0 229 -101 228 -287zM295 574l-138 139h78l111 -139
h-51z" />
    <glyph glyph-name="eth" unicode="&#xf0;" 
d="M454 259c-1 122 -49 219 -176 219c-126 0 -176 -107 -176 -219c0 -129 61 -219 176 -219c126 0 176 108 176 219zM224 679l120 60l35 -28l-121 -60c71 -57 147 -130 201 -198c40 -50 59 -118 59 -194c0 -164 -95 -273 -240 -273c-132 2 -240 92 -240 273
c0 151 77 273 256 273c-19 26 -53 59 -91 92l-109 -54l-34 27l109 55c-28 23 -56 44 -82 62l49 25c26 -15 57 -36 88 -60z" />
    <glyph glyph-name="iacute" unicode="&#xed;" horiz-adv-x="222" 
d="M138 0h-60v518h60v-518zM85 574h-51l111 139h77z" />
    <glyph glyph-name="icircumflex" unicode="&#xee;" horiz-adv-x="222" 
d="M138 0h-60v518h60v-518zM96 676l-82 -102h-65l114 139h67l113 -139h-65z" />
    <glyph glyph-name="idieresis" unicode="&#xef;" horiz-adv-x="222" 
d="M138 0h-60v518h60v-518zM-15 584v102h65v-102h-65zM144 584v102h65v-102h-65z" />
    <glyph glyph-name="igrave" unicode="&#xec;" horiz-adv-x="222" 
d="M138 0h-60v518h60v-518zM128 574l-138 139h78l111 -139h-51z" />
    <glyph glyph-name="logicalnot" unicode="&#xac;" horiz-adv-x="660" 
d="M516 112v206h-436v60h500v-266h-64z" />
    <glyph glyph-name="minus" unicode="&#x2212;" horiz-adv-x="660" 
d="M80 220v60h500v-60h-500z" />
    <glyph glyph-name="mu" unicode="&#xb5;" 
d="M423 236v282h60v-518h-60v72c-32 -36 -76 -86 -167 -86c-56 0 -98 16 -124 32v-222h-60v722h60v-340c0 -89 39 -138 133 -138c99 0 158 82 158 196z" />
    <glyph glyph-name="multiply" unicode="&#xd7;" horiz-adv-x="660" 
d="M331 216l-211 -210l-37 36l211 211l-211 211l37 36l211 -210l210 210l37 -36l-210 -211l210 -211l-37 -36z" />
    <glyph glyph-name="ntilde" unicode="&#xf1;" 
d="M132 279v-279h-60v518h60v-72c48 51 95 86 167 86c63 0 121 -20 158 -74c25 -37 26 -76 26 -119v-339h-60v338c0 93 -38 140 -134 140c-74 0 -125 -48 -144 -101c-12 -33 -13 -62 -13 -98zM164 586h-36c2 24 10 43 20 59c20 28 54 44 88 36c37 -7 88 -43 123 -43
c29 0 39 26 44 50h38c-1 -13 -5 -26 -8 -38c-14 -32 -36 -60 -74 -60c-55 0 -100 45 -146 45c-30 0 -41 -24 -49 -49z" />
    <glyph glyph-name="oacute" unicode="&#xf3;" 
d="M278 -14c-132 2 -240 92 -240 273c0 151 80 273 240 273c162 0 240 -121 240 -273c0 -164 -95 -273 -240 -273zM454 259c-1 122 -49 219 -176 219c-126 0 -176 -107 -176 -219c0 -129 61 -219 176 -219c126 0 176 108 176 219zM272 574h-51l111 139h77z" />
    <glyph glyph-name="ocircumflex" unicode="&#xf4;" 
d="M278 -14c-132 2 -240 92 -240 273c0 151 80 273 240 273c162 0 240 -121 240 -273c0 -164 -95 -273 -240 -273zM454 259c-1 122 -49 219 -176 219c-126 0 -176 -107 -176 -219c0 -129 61 -219 176 -219c126 0 176 108 176 219zM283 676l-82 -102h-65l114 139h67l113 -139
h-65z" />
    <glyph glyph-name="odieresis" unicode="&#xf6;" 
d="M278 -14c-132 2 -240 92 -240 273c0 151 80 273 240 273c162 0 240 -121 240 -273c0 -164 -95 -273 -240 -273zM454 259c-1 122 -49 219 -176 219c-126 0 -176 -107 -176 -219c0 -129 61 -219 176 -219c126 0 176 108 176 219zM172 584v102h65v-102h-65zM331 584v102h65
v-102h-65z" />
    <glyph glyph-name="ograve" unicode="&#xf2;" 
d="M278 -14c-132 2 -240 92 -240 273c0 151 80 273 240 273c162 0 240 -121 240 -273c0 -164 -95 -273 -240 -273zM454 259c-1 122 -49 219 -176 219c-126 0 -176 -107 -176 -219c0 -129 61 -219 176 -219c126 0 176 108 176 219zM295 574l-138 139h78l111 -139h-51z" />
    <glyph glyph-name="onehalf" unicode="&#xbd;" horiz-adv-x="834" 
d="M179 -14h-51l444 719h51zM158 316v314h-118v26c70 4 113 10 127 83h33v-423h-42zM548 284h-44c0 84 59 139 149 139c92 0 141 -52 141 -117c0 -112 -131 -140 -199 -188c-30 -21 -58 -45 -60 -86h255v-32h-299c0 40 6 72 35 103c96 102 223 101 223 201
c0 55 -45 87 -101 87c-60 0 -102 -50 -100 -107z" />
    <glyph glyph-name="onequarter" unicode="&#xbc;" horiz-adv-x="834" 
d="M219 -14h-51l444 719h51zM158 316v314h-118v26c70 4 113 10 127 83h33v-423h-42zM689 0v104h-209v33l213 282h38v-282h63v-33h-63v-104h-42zM689 361l-168 -224h168v224z" />
    <glyph glyph-name="onesuperior" unicode="&#xb9;" horiz-adv-x="333" 
d="M205 316v314h-118v26c70 4 113 10 127 83h33v-423h-42z" />
    <glyph glyph-name="otilde" unicode="&#xf5;" 
d="M278 -14c-132 2 -240 92 -240 273c0 151 80 273 240 273c162 0 240 -121 240 -273c0 -164 -95 -273 -240 -273zM454 259c-1 122 -49 219 -176 219c-126 0 -176 -107 -176 -219c0 -129 61 -219 176 -219c126 0 176 108 176 219zM164 586h-36c2 24 10 43 20 59
c20 28 54 44 88 36c37 -7 88 -43 123 -43c29 0 39 26 44 50h38c-1 -13 -5 -26 -8 -38c-14 -32 -36 -60 -74 -60c-55 0 -100 45 -146 45c-30 0 -41 -24 -49 -49z" />
    <glyph glyph-name="plusminus" unicode="&#xb1;" horiz-adv-x="660" 
d="M300 330v170h60v-170h220v-60h-220v-170h-60v170h-220v60h220zM80 0v60h500v-60h-500z" />
    <glyph glyph-name="registered" unicode="&#xae;" horiz-adv-x="800" 
d="M401 -19c-210 0 -380 170 -380 380c0 208 170 378 380 378c209 0 378 -170 378 -378c0 -210 -169 -380 -378 -380zM401 31c184 0 318 144 318 330c0 184 -134 328 -318 328c-185 0 -320 -144 -320 -328c0 -186 135 -330 320 -330zM462 344l128 -195h-62l-121 195h-95
v-195h-52v423h185c112 0 150 -42 150 -112c0 -83 -58 -114 -133 -116zM312 385h79c60 0 148 -10 148 76c0 66 -54 74 -106 74h-121v-150z" />
    <glyph glyph-name="scaron" unicode="&#x161;" horiz-adv-x="500" 
d="M46 162h61c19 -89 65 -122 155 -122c87 0 128 46 128 96c0 150 -332 44 -332 248c0 86 67 148 182 148c112 0 185 -46 200 -163h-61c-11 80 -65 109 -140 109c-76 0 -117 -36 -117 -89c0 -141 332 -53 332 -252c0 -99 -89 -151 -211 -151s-192 78 -197 176zM255 611
l82 102h65l-113 -139h-67l-114 139h65z" />
    <glyph glyph-name="thorn" unicode="&#xfe;" horiz-adv-x="611" 
d="M139 257c0 -117 66 -217 175 -217c124 0 182 105 177 235c-1 130 -76 203 -177 203c-113 0 -175 -96 -175 -221zM139 83v-287h-60v924h60v-293h2c35 68 114 105 180 105c167 0 234 -119 234 -272c0 -145 -73 -274 -231 -274c-73 0 -147 34 -185 97z" />
    <glyph glyph-name="threequarters" unicode="&#xbe;" horiz-adv-x="834" 
d="M689 361l-168 -224h168v224zM162 520v31c77 0 131 16 131 81c0 52 -45 75 -97 75c-59 0 -99 -38 -99 -91h-41c0 38 13 68 44 95c29 24 66 28 104 28c72 0 131 -34 131 -104c0 -44 -21 -77 -65 -95c66 -19 81 -65 81 -104c0 -70 -53 -126 -148 -128
c-106 0 -153 32 -163 130h42c0 -64 46 -98 114 -98c66 0 116 46 113 95c-2 69 -67 90 -147 85zM259 -14h-51l444 719h51zM689 0v104h-209v33l213 282h38v-282h63v-33h-63v-104h-42z" />
    <glyph glyph-name="threesuperior" unicode="&#xb3;" horiz-adv-x="333" 
d="M133 520v31c77 0 131 16 131 81c0 52 -45 75 -97 75c-59 0 -99 -38 -99 -91h-41c0 38 13 68 44 95c29 24 66 28 104 28c72 0 131 -34 131 -104c0 -44 -21 -77 -65 -95c66 -19 81 -65 81 -104c0 -70 -53 -126 -148 -128c-106 0 -153 32 -163 130h42c0 -64 46 -98 114 -98
c66 0 116 46 113 95c-2 69 -67 90 -147 85z" />
    <glyph glyph-name="trademark" unicode="&#x2122;" horiz-adv-x="940" 
d="M859 720v-421h-52v377h-2l-145 -377h-34l-145 377h-2v-377h-52v421h96l120 -311h2l118 311h96zM349 720v-40h-134v-381h-52v381h-134v40h320z" />
    <glyph glyph-name="twosuperior" unicode="&#xb2;" horiz-adv-x="333" 
d="M72 600h-44c0 84 59 139 149 139c92 0 141 -52 141 -117c0 -112 -131 -140 -199 -188c-30 -21 -58 -45 -60 -86h255v-32h-299c0 40 6 72 35 103c96 102 223 101 223 201c0 55 -45 87 -101 87c-60 0 -102 -50 -100 -107z" />
    <glyph glyph-name="uacute" unicode="&#xfa;" 
d="M423 236v282h60v-518h-60v72c-32 -36 -76 -86 -167 -86c-138 0 -184 83 -184 191v341h60v-340c0 -89 39 -138 133 -138c99 0 158 82 158 196zM272 574h-51l111 139h77z" />
    <glyph glyph-name="ucircumflex" unicode="&#xfb;" 
d="M423 236v282h60v-518h-60v72c-32 -36 -76 -86 -167 -86c-138 0 -184 83 -184 191v341h60v-340c0 -89 39 -138 133 -138c99 0 158 82 158 196zM283 676l-82 -102h-65l114 139h67l113 -139h-65z" />
    <glyph glyph-name="udieresis" unicode="&#xfc;" 
d="M423 236v282h60v-518h-60v72c-32 -36 -76 -86 -167 -86c-138 0 -184 83 -184 191v341h60v-340c0 -89 39 -138 133 -138c99 0 158 82 158 196zM172 584v102h65v-102h-65zM331 584v102h65v-102h-65z" />
    <glyph glyph-name="ugrave" unicode="&#xf9;" 
d="M423 236v282h60v-518h-60v72c-32 -36 -76 -86 -167 -86c-138 0 -184 83 -184 191v341h60v-340c0 -89 39 -138 133 -138c99 0 158 82 158 196zM295 574l-138 139h78l111 -139h-51z" />
    <glyph glyph-name="yacute" unicode="&#xfd;" horiz-adv-x="500" 
d="M68 -197v56c16 -3 33 -6 50 -6c68 0 78 98 101 143l-201 522h67l166 -445l166 445h65l-193 -511c-49 -130 -81 -211 -164 -211c-21 0 -41 3 -57 7zM244 574h-51l111 139h77z" />
    <glyph glyph-name="ydieresis" unicode="&#xff;" horiz-adv-x="500" 
d="M68 -197v56c16 -3 33 -6 50 -6c68 0 78 98 101 143l-201 522h67l166 -445l166 445h65l-193 -511c-49 -130 -81 -211 -164 -211c-21 0 -41 3 -57 7zM144 584v102h65v-102h-65zM303 584v102h65v-102h-65z" />
    <glyph glyph-name="zcaron" unicode="&#x17e;" horiz-adv-x="500" 
d="M467 0h-434v53l344 415h-321v50h398v-53l-344 -415h357v-50zM255 611l82 102h65l-113 -139h-67l-114 139h65z" />
    </font>
</defs>
</svg>
